# Blender 3.4.1
# www.blender.org
mtllib flower_petal.mtl
o Cube
v 4.321676 -0.129189 1.180829
v 4.321676 0.180840 1.180829
v 0.553408 1.149342 -2.923087
v 0.553408 1.266180 -2.923087
v 6.405766 -0.129189 -1.674969
v 6.405766 0.180840 -1.674969
v 1.338821 1.149342 -3.999327
v 1.338821 1.266180 -3.999327
v 6.774415 -0.146768 -4.793664
v 6.774415 0.163260 -4.793664
v 1.276896 1.138264 -3.988607
v 1.276896 1.255102 -3.988607
v 5.612759 -0.146768 -8.132761
v 5.612759 0.163260 -8.132761
v 0.839113 1.138264 -5.246984
v 0.839113 1.255102 -5.246984
v 2.099625 -0.155183 -10.696793
v 2.099625 0.154846 -10.696793
v 0.803079 1.132961 -5.277499
v 0.803079 1.249799 -5.277499
v -1.434880 -0.155183 -10.776058
v -1.434880 0.154846 -10.776058
v -0.528940 1.132961 -5.307372
v -0.528940 1.249799 -5.307372
vn -0.7366 -0.0000 0.6763
vn -0.8078 -0.0000 -0.5895
vn 0.4170 -0.0000 -0.9089
vn 0.8078 -0.0000 0.5895
vn -0.1841 -0.9737 -0.1343
vn 0.1574 0.9808 0.1149
vn 0.1449 -0.0000 0.9894
vn -0.9445 -0.0000 0.3286
vn -0.5173 -0.0000 -0.8558
vn 0.9445 -0.0000 -0.3286
vn -0.2165 -0.9734 0.0753
vn 0.1853 0.9806 -0.0645
vn 0.9726 -0.0000 0.2327
vn -0.0224 -0.0000 0.9997
vn -0.9866 -0.0000 0.1634
vn 0.0224 -0.0000 -0.9997
vn -0.0052 -0.9732 0.2301
vn 0.0044 0.9804 -0.1970
vt 0.375000 0.000000
vt 0.375000 1.000000
vt 0.125000 0.750000
vt 0.625000 0.000000
vt 0.625000 1.000000
vt 0.875000 0.750000
vt 0.375000 0.250000
vt 0.125000 0.500000
vt 0.625000 0.250000
vt 0.875000 0.500000
vt 0.375000 0.750000
vt 0.625000 0.750000
vt 0.375000 0.500000
vt 0.625000 0.500000
vt 0.375000 0.000000
vt 0.375000 1.000000
vt 0.125000 0.750000
vt 0.625000 0.000000
vt 0.625000 1.000000
vt 0.875000 0.750000
vt 0.375000 0.250000
vt 0.125000 0.500000
vt 0.625000 0.250000
vt 0.875000 0.500000
vt 0.375000 0.750000
vt 0.625000 0.750000
vt 0.375000 0.500000
vt 0.625000 0.500000
vt 0.375000 0.000000
vt 0.375000 1.000000
vt 0.125000 0.750000
vt 0.625000 0.000000
vt 0.625000 1.000000
vt 0.875000 0.750000
vt 0.375000 0.250000
vt 0.125000 0.500000
vt 0.625000 0.250000
vt 0.875000 0.500000
vt 0.375000 0.750000
vt 0.625000 0.750000
vt 0.375000 0.500000
vt 0.625000 0.500000
s 0
f 1/1/1 2/4/1 4/9/1 3/7/1
f 3/7/2 4/9/2 8/14/2 7/13/2
f 7/13/3 8/14/3 6/12/3 5/11/3
f 5/11/4 6/12/4 2/5/4 1/2/4
f 3/8/5 7/13/5 5/11/5 1/3/5
f 8/14/6 4/10/6 2/6/6 6/12/6
f 9/15/7 10/18/7 12/23/7 11/21/7
f 11/21/8 12/23/8 16/28/8 15/27/8
f 15/27/9 16/28/9 14/26/9 13/25/9
f 13/25/10 14/26/10 10/19/10 9/16/10
f 11/22/11 15/27/11 13/25/11 9/17/11
f 16/28/12 12/24/12 10/20/12 14/26/12
f 17/29/13 18/32/13 20/37/13 19/35/13
f 19/35/14 20/37/14 24/42/14 23/41/14
f 23/41/15 24/42/15 22/40/15 21/39/15
f 21/39/16 22/40/16 18/33/16 17/30/16
f 19/36/17 23/41/17 21/39/17 17/31/17
f 24/42/18 20/38/18 18/34/18 22/40/18
o Cube.001
v -2.545124 -0.155183 2.104381
v -2.545124 0.154846 2.104381
v -0.764349 1.132961 -3.127305
v -0.764349 1.249799 -3.127305
v 0.958741 -0.155183 2.575489
v 0.958741 0.154846 2.575489
v 0.556122 1.132961 -2.949763
v 0.556122 1.249799 -2.949763
vn -0.9467 -0.0000 -0.3222
vn 0.1333 -0.0000 -0.9911
vn 0.9974 -0.0000 -0.0727
vn -0.1333 -0.0000 0.9911
vn 0.0308 -0.9729 -0.2291
vn -0.0264 0.9802 0.1962
vt 0.375000 0.000000
vt 0.375000 1.000000
vt 0.125000 0.750000
vt 0.625000 0.000000
vt 0.625000 1.000000
vt 0.875000 0.750000
vt 0.375000 0.250000
vt 0.125000 0.500000
vt 0.625000 0.250000
vt 0.875000 0.500000
vt 0.375000 0.750000
vt 0.625000 0.750000
vt 0.375000 0.500000
vt 0.625000 0.500000
s 0
f 25/43/19 26/46/19 28/51/19 27/49/19
f 27/49/20 28/51/20 32/56/20 31/55/20
f 31/55/21 32/56/21 30/54/21 29/53/21
f 29/53/22 30/54/22 26/47/22 25/44/22
f 27/50/23 31/55/23 29/53/23 25/45/23
f 32/56/24 28/52/24 26/48/24 30/54/24
o Cube.002
v -3.850977 -0.146768 -9.705498
v -3.850977 0.163260 -9.705498
v -0.551282 1.138264 -5.260204
v -0.551282 1.255102 -5.260204
v -6.276541 -0.146768 -7.133407
v -6.276541 0.163260 -7.133407
v -1.465383 1.138264 -4.290882
v -1.465383 1.255102 -4.290882
v -6.780406 -0.146768 -2.571451
v -6.780406 0.163260 -2.571451
v -1.450616 1.138264 -4.271259
v -1.450616 1.255102 -4.271259
v -5.010349 -0.146768 0.488926
v -5.010349 0.163260 0.488926
v -0.783549 1.138264 -3.117921
v -0.783549 1.255102 -3.117921
vn 0.8030 -0.0000 -0.5960
vn 0.7275 -0.0000 0.6861
vn -0.5087 -0.0000 0.8610
vn -0.7275 -0.0000 -0.6861
vn 0.1669 -0.9733 0.1574
vn -0.1429 0.9805 -0.1348
vn -0.3038 -0.0000 -0.9527
vn 0.8656 -0.0000 -0.5007
vn 0.6491 -0.0000 0.7607
vn -0.8656 -0.0000 0.5007
vn 0.1982 -0.9734 -0.1146
vn -0.1696 0.9806 0.0981
vt 0.375000 0.000000
vt 0.375000 1.000000
vt 0.125000 0.750000
vt 0.625000 0.000000
vt 0.625000 1.000000
vt 0.875000 0.750000
vt 0.375000 0.250000
vt 0.125000 0.500000
vt 0.625000 0.250000
vt 0.875000 0.500000
vt 0.375000 0.750000
vt 0.625000 0.750000
vt 0.375000 0.500000
vt 0.625000 0.500000
vt 0.375000 0.000000
vt 0.375000 1.000000
vt 0.125000 0.750000
vt 0.625000 0.000000
vt 0.625000 1.000000
vt 0.875000 0.750000
vt 0.375000 0.250000
vt 0.125000 0.500000
vt 0.625000 0.250000
vt 0.875000 0.500000
vt 0.375000 0.750000
vt 0.625000 0.750000
vt 0.375000 0.500000
vt 0.625000 0.500000
s 0
f 33/57/25 34/60/25 36/65/25 35/63/25
f 35/63/26 36/65/26 40/70/26 39/69/26
f 39/69/27 40/70/27 38/68/27 37/67/27
f 37/67/28 38/68/28 34/61/28 33/58/28
f 35/64/29 39/69/29 37/67/29 33/59/29
f 40/70/30 36/66/30 34/62/30 38/68/30
f 41/71/31 42/74/31 44/79/31 43/77/31
f 43/77/32 44/79/32 48/84/32 47/83/32
f 47/83/33 48/84/33 46/82/33 45/81/33
f 45/81/34 46/82/34 42/75/34 41/72/34
f 43/78/35 47/83/35 45/81/35 41/73/35
f 48/84/36 44/80/36 42/76/36 46/82/36
