# Blender 3.4.1
# www.blender.org
mtllib pine_tree_leaves.mtl
o Cylinder
v 0.000000 1.462661 -3.175718
v -0.000343 13.370043 0.000002
v 1.515000 1.925340 -2.152282
v -0.000343 13.370043 0.000002
v 3.020288 1.462661 -0.981351
v -0.000343 13.370043 0.000002
v 2.481435 1.925340 0.822099
v -0.000343 13.370043 0.000002
v 1.866640 1.462661 2.569211
v -0.000343 13.370043 0.000002
v -0.048725 1.925340 2.660368
v -0.000343 13.370043 0.000002
v -1.866640 1.462661 2.569211
v -0.000343 13.370043 0.000002
v -2.578885 1.925340 0.822099
v -0.000343 13.370043 0.000002
v -3.020288 1.462661 -0.981351
v -0.000343 13.370043 0.000002
v -1.612450 1.925340 -2.152282
v -0.000343 13.370043 0.000002
v -0.048954 11.440806 -0.534404
v 0.374690 10.978127 -0.516093
v 0.459296 11.440806 -0.165139
v 0.606431 10.978127 0.197132
v 0.265161 11.440806 0.432345
v -0.000274 10.978127 0.637929
v -0.363070 11.440806 0.432345
v -0.606980 10.978127 0.197132
v -0.557205 11.440805 -0.165139
v -0.375239 10.978127 -0.516093
v 0.522757 9.479640 -0.786827
v 1.103934 9.016961 -0.358760
v 0.876065 9.479640 0.300543
v 0.682186 9.016960 0.939249
v -0.048907 9.479640 0.972574
v -0.682621 9.016961 0.939249
v -0.973879 9.479640 0.300543
v -1.104370 9.016960 -0.358760
v -0.620571 9.479640 -0.786827
v -0.000218 9.016960 -1.160973
v 0.998842 6.997369 -1.375007
v 1.305250 7.460049 -0.439975
v 1.616259 6.997369 0.525207
v 0.788027 7.460048 1.151874
v -0.000160 6.997369 1.699604
v -0.885743 7.460049 1.151874
v -1.616578 6.997369 0.525207
v -1.402967 7.460048 -0.439976
v -0.999161 6.997369 -1.375007
v -0.048858 7.460048 -1.423793
v 1.056533 5.415812 -1.521372
v 2.134835 4.953134 -0.693682
v 1.739672 5.415812 0.581114
v 1.319362 4.953134 1.816085
v -0.048809 5.415812 1.880521
v -1.319563 4.953134 1.816085
v -1.837290 5.415812 0.581114
v -2.135036 4.953134 -0.693682
v -1.154151 5.415812 -1.521372
v -0.000101 4.953133 -2.244803
v 1.604625 3.133763 -2.208642
v 2.126308 3.596443 -0.706723
v 2.596367 3.133763 0.843627
v 1.295504 3.596443 1.850228
v -0.000048 3.133763 2.730033
v -1.393034 3.596443 1.850228
v -2.596464 3.133763 0.843627
v -2.223838 3.596443 -0.706723
v -1.604721 3.133763 -2.208642
v -0.048765 3.596442 -2.287006
v 0.918864 4.695250 -1.291691
v 1.481516 4.695250 -0.517267
v 1.481516 4.695250 0.439974
v 0.918864 4.695250 1.214398
v 0.008474 4.695250 1.510202
v -0.901916 4.695250 1.214398
v -1.464569 4.695250 0.439974
v -1.464569 4.695250 -0.517267
v -0.901916 4.695250 -1.291691
v 0.008474 4.695250 -1.587495
v -0.025173 7.226432 -0.985794
v 0.554263 7.226432 -0.797524
v 0.912374 7.226432 -0.304626
v 0.912374 7.226432 0.304629
v 0.554263 7.226432 0.797526
v -0.025173 7.226432 0.985796
v -0.604609 7.226432 0.797526
v -0.962720 7.226432 0.304629
v -0.962720 7.226432 -0.304626
v -0.604609 7.226432 -0.797524
v -0.001502 8.914717 -0.492073
v 0.287732 8.914717 -0.398095
v 0.466489 8.914717 -0.152058
v 0.466489 8.914717 0.152061
v 0.287732 8.914717 0.398098
v -0.001502 8.914717 0.492076
v -0.290736 8.914717 0.398098
v -0.469492 8.914717 0.152061
v -0.469492 8.914717 -0.152058
v -0.290736 8.914717 -0.398095
v 0.010262 10.402331 -0.515779
v 0.313430 10.402331 -0.417273
v 0.500798 10.402331 -0.159383
v 0.500798 10.402331 0.159386
v 0.313430 10.402331 0.417276
v 0.010262 10.402331 0.515781
v -0.292906 10.402331 0.417276
v -0.480274 10.402331 0.159386
v -0.480274 10.402331 -0.159383
v -0.292906 10.402331 -0.417273
v -0.024076 11.906409 -0.201295
v 0.094243 11.906409 -0.162851
v 0.167368 11.906409 -0.062203
v 0.167368 11.906409 0.062206
v 0.094243 11.906409 0.162854
v -0.024076 11.906409 0.201298
v -0.142396 11.906409 0.162854
v -0.215521 11.906409 0.062206
v -0.215521 11.906409 -0.062203
v -0.142396 11.906409 -0.162851
v -0.024362 2.663481 0.000000
v -0.024362 2.663481 0.000000
v -0.024362 2.663481 0.000000
v -0.024362 2.663481 0.000000
v -0.024362 2.663481 0.000000
v -0.024362 2.663481 0.000000
v -0.024362 2.663481 0.000000
v -0.024362 2.663481 0.000000
v -0.024362 2.663481 0.000000
v -0.024362 2.663481 0.000000
vn -0.0658 0.2679 -0.9612
vn -0.0532 0.2678 -0.9620
vn 0.6033 0.2575 -0.7548
vn 0.5744 0.2577 -0.7770
vn 0.9206 0.2453 -0.3039
vn 0.9178 0.2454 -0.3122
vn 0.9209 0.2577 0.2923
vn 0.9200 0.2577 0.2953
vn 0.5121 0.2543 0.8204
vn 0.5335 0.2542 0.8067
vn 0.0376 0.2575 0.9655
vn 0.0076 0.2577 0.9662
vn -0.2138 0.2517 0.9439
vn -0.8772 0.2560 0.4062
vn -0.9164 0.2577 0.3062
vn -0.9186 0.2577 0.2996
vn -0.9463 0.2562 0.1973
vn -0.0000 1.0000 -0.0000
vn -0.6792 0.2550 -0.6883
vn -0.5667 0.2577 -0.7826
vn -0.5646 0.2577 -0.7841
vn 0.0008 -0.9354 0.3537
vn -0.1529 -0.9632 0.2210
vn -0.1539 -0.9632 0.2203
vn 0.0012 -0.9354 0.3537
vn 0.5273 -0.4484 0.7217
vn 0.5258 -0.4484 0.7229
vn 0.5554 -0.4477 0.7008
vn 0.4992 -0.4484 0.7414
vn 0.8523 -0.4450 -0.2751
vn 0.8518 -0.4450 -0.2764
vn 0.8299 -0.4443 -0.3375
vn 0.8710 -0.4437 -0.2109
vn -0.0015 -0.4539 -0.8911
vn -0.0003 -0.4538 -0.8911
vn 0.0157 -0.4536 -0.8911
vn -0.0192 -0.4540 -0.8908
vn -0.8440 -0.4626 -0.2715
vn -0.8433 -0.4626 -0.2736
vn -0.8094 -0.4601 -0.3649
vn -0.8703 -0.4604 -0.1746
vn -0.5259 -0.4593 0.7158
vn -0.5228 -0.4593 0.7182
vn -0.5807 -0.4586 0.6727
vn -0.4699 -0.4578 0.7548
vn -0.0182 -0.4275 0.9039
vn -0.0017 -0.4278 0.9039
vn -0.5150 -0.4176 0.7486
vn -0.5292 -0.4173 0.7388
vn -0.8668 -0.4120 0.2809
vn -0.8687 -0.4119 0.2752
vn -0.8666 -0.4058 -0.2904
vn -0.8686 -0.4057 -0.2846
vn -0.5353 -0.4181 -0.7340
vn -0.5474 -0.4178 -0.7251
vn 0.0313 -0.4360 -0.8994
vn 0.0081 -0.4354 -0.9002
vn 0.5276 -0.4375 -0.7282
vn 0.5182 -0.4373 -0.7350
vn 0.8460 -0.4634 -0.2637
vn 0.8436 -0.4633 -0.2713
vn 0.8523 -0.4433 0.2774
vn 0.8511 -0.4433 0.2812
vn 0.5455 -0.4533 0.7050
vn 0.5295 -0.4529 0.7173
vn 0.4892 -0.5364 0.6877
vn 0.4937 -0.5364 0.6845
vn 0.0174 -0.5378 0.8429
vn 0.0069 -0.5377 0.8431
vn 0.7945 -0.5507 0.2557
vn 0.7956 -0.5507 0.2524
vn 0.8009 -0.5378 -0.2634
vn 0.8015 -0.5378 -0.2615
vn 0.4972 -0.5458 -0.6744
vn 0.5043 -0.5459 -0.6691
vn -0.0114 -0.5342 -0.8453
vn -0.0039 -0.5342 -0.8453
vn -0.4944 -0.5293 -0.6895
vn -0.4879 -0.5294 -0.6941
vn -0.8073 -0.5307 -0.2582
vn -0.8065 -0.5307 -0.2607
vn -0.8094 -0.5241 0.2650
vn -0.8085 -0.5241 0.2678
vn -0.5057 -0.5320 0.6792
vn -0.5004 -0.5320 0.6830
vn -0.0066 -0.4726 0.8813
vn -0.0055 -0.4726 0.8813
vn -0.5178 -0.4563 0.7236
vn -0.5204 -0.4563 0.7218
vn -0.8374 -0.4751 0.2702
vn -0.8375 -0.4751 0.2699
vn -0.8461 -0.4551 -0.2774
vn -0.8465 -0.4551 -0.2763
vn -0.5211 -0.4742 -0.7096
vn -0.5219 -0.4742 -0.7091
vn 0.0083 -0.4581 -0.8889
vn 0.0042 -0.4581 -0.8889
vn 0.5150 -0.4710 -0.7162
vn 0.5143 -0.4710 -0.7167
vn 0.8448 -0.4611 -0.2716
vn 0.8444 -0.4611 -0.2729
vn 0.8390 -0.4700 0.2743
vn 0.8389 -0.4700 0.2746
vn 0.5276 -0.4600 0.7142
vn 0.5248 -0.4600 0.7162
vn 0.4689 -0.5832 0.6633
vn 0.4771 -0.5835 0.6573
vn 0.0108 -0.5620 0.8271
vn -0.0010 -0.5618 0.8273
vn 0.7671 -0.5895 0.2531
vn 0.7703 -0.5897 0.2425
vn 0.7591 -0.6037 -0.2436
vn 0.7572 -0.6038 -0.2492
vn 0.4707 -0.6014 -0.6456
vn 0.4749 -0.6014 -0.6425
vn -0.0086 -0.6036 -0.7973
vn -0.0023 -0.6037 -0.7972
vn -0.4800 -0.5820 -0.6564
vn -0.4691 -0.5824 -0.6639
vn -0.7754 -0.5832 -0.2422
vn -0.7718 -0.5834 -0.2528
vn -0.7892 -0.5568 0.2592
vn -0.7901 -0.5569 0.2562
vn -0.4858 -0.5703 0.6624
vn -0.4859 -0.5703 0.6623
vn 0.0033 0.4154 -0.9096
vn 0.0085 0.4154 -0.9096
vn 0.5406 0.3867 -0.7471
vn 0.5390 0.3867 -0.7483
vn 0.6775 0.3800 -0.6298
vn 0.9156 0.3857 0.1141
vn 0.8742 0.3942 0.2834
vn 0.8730 0.3943 0.2870
vn 0.5386 0.4285 0.7254
vn 0.5322 0.4286 0.7300
vn -0.0014 0.4115 0.9114
vn -0.0062 0.4116 0.9114
vn -0.5254 0.4361 0.7306
vn -0.5260 0.4361 0.7302
vn -0.8659 0.4147 0.2796
vn -0.8655 0.4147 0.2808
vn -0.8576 0.4280 -0.2851
vn -0.8598 0.4281 -0.2785
vn -0.5392 0.3996 -0.7414
vn -0.5438 0.3997 -0.7379
vn -0.5408 0.3761 -0.7524
vn -0.5399 0.3761 -0.7530
vn -0.0035 0.3536 -0.9354
vn -0.0055 0.3536 -0.9354
vn -0.8894 0.3558 -0.2870
vn -0.8892 0.3558 -0.2877
vn -0.8810 0.3753 0.2881
vn -0.8808 0.3753 0.2885
vn -0.5533 0.3550 0.7535
vn -0.5519 0.3550 0.7546
vn -0.3820 0.3478 0.8562
vn 0.5467 0.3523 0.7596
vn 0.5480 0.3523 0.7587
vn 0.3981 0.3470 0.8492
vn 0.6803 0.3467 0.6457
vn 0.8899 0.3514 -0.2908
vn 0.8901 0.3514 -0.2902
vn 0.9293 0.3464 -0.1280
vn 0.8259 0.3466 -0.4447
vn 0.1818 0.3473 -0.9200
vn 0.0063 0.3980 -0.9174
vn 0.0125 0.3980 -0.9173
vn 0.5429 0.3711 -0.7534
vn 0.5406 0.3711 -0.7550
vn 0.6788 0.3641 -0.6378
vn 0.9236 0.3623 0.1250
vn 0.8839 0.3679 0.2886
vn 0.8836 0.3679 0.2895
vn 0.8188 0.3630 0.4446
vn 0.1896 0.3675 0.9105
vn -0.0048 0.3761 0.9266
vn -0.0086 0.3762 0.9265
vn -0.5311 0.3990 0.7475
vn -0.5350 0.3990 0.7447
vn -0.8786 0.3842 0.2837
vn -0.8790 0.3842 0.2825
vn -0.8707 0.3997 -0.2867
vn -0.8712 0.3997 -0.2850
vn -0.5468 0.3811 -0.7455
vn -0.5495 0.3812 -0.7435
vn -0.5525 0.3240 -0.7679
vn -0.5455 0.3240 -0.7730
vn -0.0063 0.3038 -0.9527
vn -0.0126 0.3039 -0.9526
vn -0.9035 0.3165 -0.2889
vn -0.9028 0.3165 -0.2910
vn -0.8985 0.3262 0.2936
vn -0.8975 0.3262 0.2967
vn -0.5674 0.3117 0.7621
vn -0.5630 0.3117 0.7654
vn 0.0057 0.3205 0.9472
vn 0.0169 0.3204 0.9471
vn 0.5540 0.2958 0.7782
vn 0.5578 0.2958 0.7755
vn 0.7002 0.2886 0.6530
vn 0.9090 0.2908 -0.2988
vn 0.9095 0.2907 -0.2972
vn 0.9499 0.2856 -0.1272
vn 0.8407 0.2869 -0.4593
vn 0.2027 0.2945 -0.9339
vn 0.0080 0.3134 -0.9496
vn 0.0195 0.3134 -0.9494
vn 0.5522 0.3015 -0.7773
vn 0.5485 0.3015 -0.7799
vn 0.9038 0.3179 -0.2866
vn 0.9026 0.3179 -0.2903
vn 0.9064 0.2992 0.2982
vn 0.9059 0.2992 0.2997
vn 0.5712 0.3162 0.7575
vn 0.5633 0.3162 0.7633
vn -0.0143 0.3051 0.9522
vn -0.0207 0.3051 0.9521
vn -0.5469 0.3106 0.7774
vn -0.5539 0.3106 0.7725
vn -0.9055 0.3108 0.2888
vn -0.9062 0.3108 0.2866
vn -0.9029 0.3089 -0.2988
vn -0.9039 0.3089 -0.2959
vn -0.5695 0.3086 -0.7619
vn -0.5740 0.3086 -0.7584
vn -0.3342 -0.9362 0.1088
vn -0.2556 -0.9630 -0.0855
vn -0.2347 -0.9608 -0.1474
vn -0.3370 -0.9362 0.0998
vn 0.1614 -0.9640 0.2115
vn 0.1605 -0.9640 0.2122
vn 0.3386 -0.9345 0.1097
vn 0.3296 -0.9341 0.1370
vn 0.2530 -0.9642 -0.0797
vn 0.2959 -0.9531 0.0638
vn 0.2093 -0.9348 -0.2868
vn 0.2096 -0.9348 -0.2866
vn 0.0077 -0.9636 -0.2673
vn 0.0062 -0.9636 -0.2673
vn -0.2066 -0.9359 -0.2854
vn -0.2064 -0.9359 -0.2855
vt 1.000000 0.500000
vt -0.000000 0.500000
vt 1.000000 1.000000
vt 0.250000 0.490000
vt -0.000000 1.000000
vt 0.900000 0.500000
vt 0.900000 1.000000
vt 0.391068 0.444164
vt 0.800000 0.500000
vt 0.800000 1.000000
vt 0.478254 0.324164
vt 0.700000 0.500000
vt 0.700000 1.000000
vt 0.478254 0.175836
vt 0.600000 0.500000
vt 0.600000 1.000000
vt 0.391068 0.055836
vt 0.500000 0.500000
vt 0.500000 1.000000
vt 0.250000 0.010000
vt 0.400000 0.500000
vt 0.400000 1.000000
vt 0.108932 0.055836
vt 0.300000 0.500000
vt 0.300000 1.000000
vt 0.021746 0.175836
vt 0.200000 0.500000
vt 0.021746 0.324164
vt 0.200000 1.000000
vt 0.100000 0.500000
vt 0.108932 0.444164
vt 0.100000 1.000000
vt -0.000000 0.899562
vt 1.000000 0.899562
vt 0.900000 0.899562
vt 0.800000 0.899562
vt 0.700000 0.899562
vt 0.600000 0.899562
vt 0.500000 0.899562
vt 0.400000 0.899562
vt 0.300000 0.899562
vt 0.200000 0.899562
vt 0.100000 0.899562
vt 0.900000 0.817211
vt 0.800000 0.817211
vt 0.700000 0.817211
vt 0.600000 0.817211
vt 0.500000 0.817211
vt 0.400000 0.817211
vt 0.300000 0.817211
vt 0.200000 0.817211
vt 0.100000 0.817211
vt 1.000000 0.817211
vt -0.000000 0.817211
vt 0.900000 0.732406
vt 0.800000 0.732406
vt 0.700000 0.732407
vt 0.600000 0.732407
vt 0.500000 0.732407
vt 0.400000 0.732407
vt 0.300000 0.732407
vt 0.200000 0.732407
vt 0.100000 0.732407
vt -0.000000 0.732407
vt 1.000000 0.732406
vt 0.900000 0.646567
vt 0.800000 0.646568
vt 0.700000 0.646568
vt 0.600000 0.646568
vt 0.500000 0.646568
vt 0.400000 0.646568
vt 0.300000 0.646568
vt 0.200000 0.646568
vt 0.100000 0.646568
vt 1.000000 0.646568
vt -0.000000 0.646568
vt 0.900000 0.570171
vt 0.800000 0.570171
vt 0.700000 0.570171
vt 0.600000 0.570171
vt 0.500000 0.570171
vt 0.400000 0.570171
vt 0.300000 0.570171
vt 0.200000 0.570171
vt 0.100000 0.570171
vt -0.000000 0.570171
vt 1.000000 0.570171
vt 0.900000 0.570171
vt 0.800000 0.570171
vt 0.700000 0.570171
vt 0.600000 0.570171
vt 0.500000 0.570171
vt 0.400000 0.570171
vt 0.300000 0.570171
vt 0.200000 0.570171
vt 0.100000 0.570171
vt 1.000000 0.570171
vt -0.000000 0.570171
vt -0.000000 0.646568
vt 1.000000 0.646568
vt 0.900000 0.646567
vt 0.800000 0.646567
vt 0.700000 0.646568
vt 0.600000 0.646568
vt 0.500000 0.646568
vt 0.400000 0.646568
vt 0.300000 0.646568
vt 0.200000 0.646568
vt 0.100000 0.646568
vt 1.000000 0.732406
vt -0.000000 0.732407
vt 0.900000 0.732407
vt 0.800000 0.732406
vt 0.700000 0.732407
vt 0.600000 0.732407
vt 0.500000 0.732407
vt 0.400000 0.732407
vt 0.300000 0.732407
vt 0.200000 0.732407
vt 0.100000 0.732407
vt -0.000000 0.817211
vt 1.000000 0.817211
vt 0.900000 0.817211
vt 0.800000 0.817211
vt 0.700000 0.817211
vt 0.600000 0.817211
vt 0.500000 0.817211
vt 0.400000 0.817211
vt 0.300000 0.817211
vt 0.200000 0.817211
vt 0.100000 0.817211
vt 1.000000 0.899562
vt -0.000000 0.899562
vt 0.900000 0.899562
vt 0.800000 0.899562
vt 0.700000 0.899562
vt 0.600000 0.899562
vt 0.500000 0.899562
vt 0.400000 0.899562
vt 0.300000 0.899562
vt 0.200000 0.899562
vt 0.100000 0.899562
vt 1.000000 0.500000
vt 0.750000 0.490000
vt -0.000000 0.500000
vt 0.891068 0.444164
vt 0.900000 0.500000
vt 0.978254 0.324164
vt 0.800000 0.500000
vt 0.978254 0.175836
vt 0.700000 0.500000
vt 0.891068 0.055836
vt 0.600000 0.500000
vt 0.750000 0.010000
vt 0.500000 0.500000
vt 0.608932 0.055836
vt 0.400000 0.500000
vt 0.521746 0.175836
vt 0.300000 0.500000
vt 0.521746 0.324164
vt 0.200000 0.500000
vt 0.608932 0.444164
vt 0.100000 0.500000
s 1
f 21/34/1 2/3/2 4/7/3 22/35/4
f 22/35/4 4/7/3 6/10/5 23/36/6
f 23/36/6 6/10/5 8/13/7 24/37/8
f 24/37/8 8/13/7 10/16/9 25/38/10
f 25/38/10 10/16/9 12/19/11 26/39/12
f 26/39/12 12/19/11 14/22/13 27/40/13
f 27/40/14 14/22/14 16/25/15 28/41/16
f 28/41/16 16/25/15 18/29/17 29/42/17
f 4/8/18 2/4/18 20/31/18 18/28/18 16/26/18 14/23/18 12/20/18 10/17/18 8/14/18 6/11/18
f 29/42/19 18/29/19 20/32/20 30/43/21
f 30/43/21 20/32/20 2/5/2 21/33/1
f 1/1/22 3/6/23 122/147/24 121/143/25
f 120/142/26 30/43/27 21/33/28 111/133/28
f 119/141/29 29/42/29 30/43/27 120/142/26
f 118/140/30 28/41/31 29/42/32 119/141/32
f 117/139/33 27/40/33 28/41/31 118/140/30
f 116/138/34 26/39/35 27/40/36 117/139/36
f 115/137/37 25/38/37 26/39/35 116/138/34
f 114/136/38 24/37/39 25/38/40 115/137/40
f 113/135/41 23/36/41 24/37/39 114/136/38
f 112/134/42 22/35/43 23/36/44 113/135/44
f 111/132/45 21/34/45 22/35/43 112/134/42
f 101/122/46 40/53/47 31/44/48 102/123/49
f 102/123/49 31/44/48 32/45/50 103/124/51
f 103/124/51 32/45/50 33/46/52 104/125/53
f 104/125/53 33/46/52 34/47/54 105/126/55
f 105/126/55 34/47/54 35/48/56 106/127/57
f 106/127/57 35/48/56 36/49/58 107/128/59
f 107/128/59 36/49/58 37/50/60 108/129/61
f 108/129/61 37/50/60 38/51/62 109/130/63
f 109/130/63 38/51/62 39/52/64 110/131/65
f 110/131/65 39/52/64 40/54/47 101/121/46
f 100/120/66 49/63/67 50/64/68 91/111/69
f 99/119/70 48/62/71 49/63/67 100/120/66
f 98/118/72 47/61/73 48/62/71 99/119/70
f 97/117/74 46/60/75 47/61/73 98/118/72
f 96/116/76 45/59/77 46/60/75 97/117/74
f 95/115/78 44/58/79 45/59/77 96/116/76
f 94/114/80 43/57/81 44/58/79 95/115/78
f 93/113/82 42/56/83 43/57/81 94/114/80
f 92/112/84 41/55/85 42/56/83 93/113/82
f 91/110/69 50/65/68 41/55/85 92/112/84
f 81/100/86 60/75/87 51/66/88 82/101/89
f 82/101/89 51/66/88 52/67/90 83/102/91
f 83/102/91 52/67/90 53/68/92 84/103/93
f 84/103/93 53/68/92 54/69/94 85/104/95
f 85/104/95 54/69/94 55/70/96 86/105/97
f 86/105/97 55/70/96 56/71/98 87/106/99
f 87/106/99 56/71/98 57/72/100 88/107/101
f 88/107/101 57/72/100 58/73/102 89/108/103
f 89/108/103 58/73/102 59/74/104 90/109/105
f 90/109/105 59/74/104 60/76/87 81/99/86
f 79/96/106 69/85/107 70/86/108 80/98/109
f 78/95/110 68/84/111 69/85/107 79/96/106
f 77/94/112 67/83/113 68/84/111 78/95/110
f 76/93/114 66/82/115 67/83/113 77/94/112
f 75/92/116 65/81/117 66/82/115 76/93/114
f 74/91/118 64/80/119 65/81/117 75/92/116
f 73/90/120 63/79/121 64/80/119 74/91/118
f 72/89/122 62/78/123 63/79/121 73/90/120
f 71/88/124 61/77/125 62/78/123 72/89/122
f 80/97/109 70/87/108 61/77/125 71/88/124
f 1/1/126 80/97/127 71/88/128 3/6/129
f 3/6/129 71/88/128 72/89/130 5/9/130
f 5/9/131 72/89/131 73/90/132 7/12/133
f 7/12/133 73/90/132 74/91/134 9/15/135
f 9/15/135 74/91/134 75/92/136 11/18/137
f 11/18/137 75/92/136 76/93/138 13/21/139
f 13/21/139 76/93/138 77/94/140 15/24/141
f 15/24/141 77/94/140 78/95/142 17/27/143
f 17/27/143 78/95/142 79/96/144 19/30/145
f 19/30/145 79/96/144 80/98/127 1/2/126
f 69/85/146 90/109/147 81/99/148 70/86/149
f 68/84/150 89/108/151 90/109/147 69/85/146
f 67/83/152 88/107/153 89/108/151 68/84/150
f 66/82/154 87/106/155 88/107/153 67/83/152
f 65/81/156 86/105/156 87/106/155 66/82/154
f 64/80/157 85/104/158 86/105/159 65/81/159
f 63/79/160 84/103/160 85/104/158 64/80/157
f 62/78/161 83/102/162 84/103/163 63/79/163
f 61/77/164 82/101/164 83/102/162 62/78/161
f 70/87/149 81/100/148 82/101/165 61/77/165
f 60/75/166 91/110/167 92/112/168 51/66/169
f 51/66/169 92/112/168 93/113/170 52/67/170
f 52/67/171 93/113/171 94/114/172 53/68/173
f 53/68/173 94/114/172 95/115/174 54/69/174
f 54/69/175 95/115/175 96/116/176 55/70/177
f 55/70/177 96/116/176 97/117/178 56/71/179
f 56/71/179 97/117/178 98/118/180 57/72/181
f 57/72/181 98/118/180 99/119/182 58/73/183
f 58/73/183 99/119/182 100/120/184 59/74/185
f 59/74/185 100/120/184 91/111/167 60/76/166
f 49/63/186 110/131/187 101/121/188 50/64/189
f 48/62/190 109/130/191 110/131/187 49/63/186
f 47/61/192 108/129/193 109/130/191 48/62/190
f 46/60/194 107/128/195 108/129/193 47/61/192
f 45/59/196 106/127/197 107/128/195 46/60/194
f 44/58/198 105/126/199 106/127/197 45/59/196
f 43/57/200 104/125/200 105/126/199 44/58/198
f 42/56/201 103/124/202 104/125/203 43/57/203
f 41/55/204 102/123/204 103/124/202 42/56/201
f 50/65/189 101/122/188 102/123/205 41/55/205
f 40/53/206 111/132/207 112/134/208 31/44/209
f 31/44/209 112/134/208 113/135/210 32/45/211
f 32/45/211 113/135/210 114/136/212 33/46/213
f 33/46/213 114/136/212 115/137/214 34/47/215
f 34/47/215 115/137/214 116/138/216 35/48/217
f 35/48/217 116/138/216 117/139/218 36/49/219
f 36/49/219 117/139/218 118/140/220 37/50/221
f 37/50/221 118/140/220 119/141/222 38/51/223
f 38/51/223 119/141/222 120/142/224 39/52/225
f 39/52/225 120/142/224 111/133/207 40/54/206
f 121/144/18 122/146/18 123/148/18 124/150/18 125/152/18 126/154/18 127/156/18 128/158/18 129/160/18 130/162/18
f 5/9/226 7/12/227 124/151/228 123/149/229
f 3/6/23 5/9/226 123/149/229 122/147/24
f 19/30/230 1/2/22 121/145/25 130/163/231
f 17/27/232 19/30/230 130/163/231 129/161/233
f 15/24/234 17/27/232 129/161/233 128/159/235
f 13/21/236 15/24/234 128/159/235 127/157/237
f 11/18/238 13/21/236 127/157/237 126/155/239
f 9/15/240 11/18/238 126/155/239 125/153/241
f 7/12/227 9/15/240 125/153/241 124/151/228
