# Blender 3.4.1
# www.blender.org
mtllib pine_tree_trunks.mtl
o Cylinder.001
v -0.000000 0.011003 -0.805394
v -0.000000 2.483082 -0.316923
v 0.473399 0.011003 -0.651577
v 0.186283 2.483082 -0.256396
v 0.765975 0.011003 -0.248880
v 0.301411 2.483082 -0.097934
v 0.765975 0.011003 0.248881
v 0.301411 2.483082 0.097935
v 0.473399 0.011003 0.651578
v 0.186283 2.483082 0.256396
v -0.000000 0.011003 0.805394
v -0.000000 2.483082 0.316923
v -0.473399 0.011003 0.651578
v -0.186283 2.483082 0.256396
v -0.765975 0.011003 0.248881
v -0.301411 2.483082 0.097935
v -0.765975 0.011003 -0.248880
v -0.301411 2.483082 -0.097934
v -0.473399 0.011003 -0.651577
v -0.186283 2.483082 -0.256396
v -0.000000 0.820587 -0.495344
v 0.291156 0.820587 -0.400742
v 0.471101 0.820587 -0.153070
v 0.471101 0.820587 0.153070
v 0.291156 0.820587 0.400742
v -0.000000 0.820587 0.495345
v -0.291156 0.820587 0.400742
v -0.471101 0.820587 0.153070
v -0.471101 0.820587 -0.153070
v -0.291156 0.820587 -0.400742
vn 0.2904 0.3422 -0.8936
vn 0.3008 0.2290 -0.9258
vn 0.7602 0.3422 -0.5523
vn 0.7875 0.2290 -0.5722
vn 0.9396 0.3422 -0.0000
vn 0.9734 0.2290 -0.0000
vn 0.7602 0.3422 0.5523
vn 0.7875 0.2290 0.5722
vn 0.2904 0.3422 0.8936
vn 0.3008 0.2290 0.9258
vn -0.2904 0.3422 0.8936
vn -0.3008 0.2290 0.9258
vn -0.7602 0.3422 0.5523
vn -0.7875 0.2290 0.5722
vn -0.9396 0.3422 -0.0000
vn -0.9734 0.2290 -0.0000
vn -0.0000 1.0000 -0.0000
vn -0.7602 0.3422 -0.5523
vn -0.7875 0.2290 -0.5722
vn -0.2904 0.3422 -0.8936
vn -0.3008 0.2290 -0.9258
vn -0.0000 -1.0000 -0.0000
vn 0.3074 0.1015 -0.9461
vn 0.8048 0.1015 -0.5847
vn 0.9948 0.1015 -0.0000
vn 0.8048 0.1015 0.5847
vn 0.3074 0.1015 0.9461
vn -0.3074 0.1015 0.9461
vn -0.8048 0.1015 0.5847
vn -0.9948 0.1015 -0.0000
vn -0.8048 0.1015 -0.5847
vn -0.3074 0.1015 -0.9461
vt 0.750000 0.490000
vt 0.250000 0.490000
vt 1.000000 1.000000
vt -0.000000 1.000000
vt 0.891068 0.444164
vt 0.391068 0.444164
vt 0.900000 1.000000
vt 0.978254 0.324164
vt 0.478254 0.324164
vt 0.800000 1.000000
vt 0.978254 0.175836
vt 0.478254 0.175836
vt 0.700000 1.000000
vt 0.891068 0.055836
vt 0.391068 0.055836
vt 0.600000 1.000000
vt 0.750000 0.010000
vt 0.250000 0.010000
vt 0.500000 1.000000
vt 0.608932 0.055836
vt 0.108932 0.055836
vt 0.400000 1.000000
vt 0.521746 0.175836
vt 0.021746 0.175836
vt 0.300000 1.000000
vt 0.521746 0.324164
vt 0.021746 0.324164
vt 0.200000 1.000000
vt 0.608932 0.444164
vt 0.108932 0.444164
vt 0.100000 1.000000
vt 0.750000 0.434917
vt 1.000000 0.702396
vt -0.000000 0.702396
vt 0.858691 0.399601
vt 0.900000 0.702396
vt 0.925866 0.307142
vt 0.800000 0.702396
vt 0.925866 0.192858
vt 0.700000 0.702396
vt 0.858691 0.100399
vt 0.600000 0.702396
vt 0.750000 0.065083
vt 0.500000 0.702396
vt 0.641309 0.100399
vt 0.400000 0.702396
vt 0.574134 0.192858
vt 0.300000 0.702396
vt 0.574134 0.307142
vt 0.200000 0.702396
vt 0.641309 0.399601
vt 0.100000 0.702396
s 1
f 1/1/1 21/32/2 22/35/2 3/5/1
f 3/5/3 22/35/4 23/37/4 5/8/3
f 5/8/5 23/37/6 24/39/6 7/11/5
f 7/11/7 24/39/8 25/41/8 9/14/7
f 9/14/9 25/41/10 26/43/10 11/17/9
f 11/17/11 26/43/12 27/45/12 13/20/11
f 13/20/13 27/45/14 28/47/14 15/23/13
f 15/23/15 28/47/16 29/49/16 17/26/15
f 4/6/17 2/2/17 20/30/17 18/27/17 16/24/17 14/21/17 12/18/17 10/15/17 8/12/17 6/9/17
f 17/26/18 29/49/19 30/51/19 19/29/18
f 19/29/20 30/51/21 21/32/21 1/1/20
f 1/1/22 3/5/22 5/8/22 7/11/22 9/14/22 11/17/22 13/20/22 15/23/22 17/26/22 19/29/22
f 21/33/2 2/3/23 4/7/23 22/36/2
f 22/36/4 4/7/24 6/10/24 23/38/4
f 23/38/6 6/10/25 8/13/25 24/40/6
f 24/40/8 8/13/26 10/16/26 25/42/8
f 25/42/10 10/16/27 12/19/27 26/44/10
f 26/44/12 12/19/28 14/22/28 27/46/12
f 27/46/14 14/22/29 16/25/29 28/48/14
f 28/48/16 16/25/30 18/28/30 29/50/16
f 29/50/19 18/28/31 20/31/31 30/52/19
f 30/52/21 20/31/32 2/4/32 21/34/21
